<svg xmlns="http://www.w3.org/2000/svg" width="20.463" height="20.888" viewBox="0 0 20.463 20.888">
  <path id="Trazado_1" data-name="Trazado 1" d="M18.647,7.424l.182.13H19V7.229l.534-.052.507.378h.834l.059-.054q-.125-.422-.283-.828l-.544.009-.273-.3L19.779,5.9l-.28.153-.15.589-.4-.43-.016-.406-.39-.336L18.4,5.329h-.452l.142.4.544.3.094.1-.118.059.005.319-.265.111-.226-.049-.142-.2.368.02.1-.134-.815-.55-.063-.234-.331.3L16.9,5.706l-.511.664-.1.26-.327.03-.484,0-.289-.135-.085-.574.1-.274.492-.108.537.108.066-.3-.228-.054.078-.463.54-.084.378-.534.39-.065.352.052h.13l-.072-.5-.428.173-.151-.375L17.046,3.5,17,3.241l.2-.221.482-.189.124-.222A10.413,10.413,0,0,0,4.776,2L5.3,2l.235.13.442.1.035.174.7.026-.1-.226L6,2.178l.147-.138-.051-.165H5.528l.616-.46h.59l.277.382.46.026.277-.269.208.1-.382.373-.5.01a1.75,1.75,0,0,1,.044.364l.642-.018.069-.173.442-.026.052-.26-.26-.044.087-.234.2-.06.694.035-.383.347.062.269.4.061-.026-.486.382-.2.677-.078.98.434v.373l.312.078-.157.3h-.443l-.131.338-1.01-.238.8-.424-.3-.257-.686.087-.06.062h0l-.01.015-.2.205-.326.027.026.163.114.047,0,.054-.266.038-.02.154L8.511,3l-.046-.306L8.01,2.83l-.931.545.1.384.26.17L7.964,4v.592L8.2,4.553l.222-.462.554-.175v-.71l.308-.232.744.176-.052.469h.2l.547-.269.026.616.4.243-.017.365-.381.13.026.121.46.209-.01.252L11.1,5.3a.036.036,0,0,0,0-.007l-.58-.179-.025-.186h0l.17-.117v-.17l-.183-.046-.045.157-.32.049-.032-.01V4.8l-.111.017-.09-.183-.1-.046H9.546l-.1.085v.189l.195.065.193.027-.043.019-.176.195-.077-.1-.17-.045L8.9,5.465l.06.049-.683.378-.643.668-.044.3-.644.423L6.629,7.6l.035.642-.443-.206,0-.376H4.993l-.638.323L4.078,8.5l-.11.405.179.393.5.061.8-.534.07.265-.244.46.608.1.061.939.833.142.529-.612.643.131.226.314.616-.036.017-.182.339.164.382.6.659.009.243.426.035.52.729.277.92.01.269.442.408.131-.078.366-.447.568-.13,1.257-.4.319-.6-.018-.2.347.148.652-.652.833-.208.382-.621.3L9.2,17.99l-.017.173.287.082-.035.187-.257.247.156.2.309.009-.017.238-.082.235-.026.191.457.385-.061.2-.622-.012-.618-.539-.482-.847.067-.817-.365-.486.148-.824-.217-.06V14.757s-.608-.46-.643-.46-.321-.078-.321-.078L6.8,13.881l-.79-.99.078-.356.026-.582.547-.382-.078-.651-.8-.06-.625-.712-.443-.123-.286-.053.035-.26L4.1,9.661v.148l-.912-.227L2.818,9.02l.149-.272L2.39,7.906l-.1-.616H2.057l.078.6.4.616-.044.243L2.152,8.7l-.416-.71V7.16L1.3,6.951V6.357A10.44,10.44,0,0,0,19.012,17.028h-.345v-.694l-.4-.537v-.835l-.3-.3-.027-.347.387-.738-.732-1.294.086-.878-.659-.068-.243-.243h-.443l-.225.208h-.781l-.026.069h-.435l-1-1.137.008-.885.165-.06.061-.339h-.234l-.1-.356,1.154-.833v-.59l.565-.314.229.023h.465l.364-.2,1.172-.091v.6ZM15.717,3.7l.1-.147.343-.069.086.417.183.295.121.139.221.086-.208.248-.4.039h-.3l.034-.36.252-.052-.021-.169-.235-.148-.164-.113V3.7Zm-.563.651.208-.334.281-.065.2.087-.018.226-.43.3h-.242V4.352ZM9.479,5.636l-.217.018L9.273,5.5l.1-.121.131.1Zm.762-.267-.148.013-.03.143L9.949,5.6l-.183.015c-.006-.043-.01-.076-.01-.076H9.684V5.382h.3l.062-.159.119,0,.136.028Z" transform="translate(-0.468 0)" fill="#fafafa"/>
</svg>
